<svg xmlns="http://www.w3.org/2000/svg" viewBox="0 0 28.54 28.54"><g data-name="Capa 2"><path d="M14.27 0a14.27 14.27 0 0 0-5.73 27.34 12.59 12.59 0 0 1 .25-3.28l1.84-7.77a5.46 5.46 0 0 1-.46-2.29c0-2.11 1.23-3.69 2.75-3.69a1.91 1.91 0 0 1 1.92 2.14c0 1.31-.83 3.26-1.26 5.06a2.21 2.21 0 0 0 2.25 2.75c2.7 0 4.52-3.47 4.52-7.59 0-3.13-2.11-5.47-5.94-5.47a6.76 6.76 0 0 0-7 6.83 4.12 4.12 0 0 0 .94 2.8.69.69 0 0 1 .2.79c-.07.26-.23.9-.29 1.15a.49.49 0 0 1-.71.36c-2-.81-2.92-3-2.92-5.45C4.62 9.66 8 4.8 14.82 4.8c5.45 0 9 3.94 9 8.17 0 5.6-3.11 9.78-7.7 9.78A4.09 4.09 0 0 1 12.67 21s-.83 3.29-1 3.92A12.07 12.07 0 0 1 10.23 28a14.27 14.27 0 1 0 4-28" style="fill:#1d1d1b" data-name="Capa 1"/></g></svg>