<svg xmlns="http://www.w3.org/2000/svg" viewBox="0 0 28.54 28.54"><g data-name="Capa 2"><path d="M14.27 0a14.27 14.27 0 1 0 14.27 14.27A14.27 14.27 0 0 0 14.27 0zm7.8 10.06c-.53.2.57 3.74-2.73 7.93a11.44 11.44 0 0 1-7.16 4 9.42 9.42 0 0 1-7.49-1.63 8.53 8.53 0 0 0 5.7-1.75s-2.96-.2-3.65-2.61h1.63s-3.13-1.06-3.09-4a4.54 4.54 0 0 0 1.65.41 4.18 4.18 0 0 1-1.08-5.35 10.73 10.73 0 0 0 8.1 4.07s-.45-3.46 2.56-4.52a3.89 3.89 0 0 1 4.27.94s2-.32 2.44-.94a3.13 3.13 0 0 1-1.51 2.12 5.3 5.3 0 0 0 2.16-.49 9.92 9.92 0 0 1-1.8 1.82z" style="fill:#1d1d1b" data-name="Capa 1"/></g></svg>