<svg width="25" height="25" fill="none" xmlns="http://www.w3.org/2000/svg"><path fill-rule="evenodd" clip-rule="evenodd" d="m23.836 22.575-6.047-6.047a.556.556 0 0 0-.398-.164h-.483A9.707 9.707 0 0 0 19.5 9.75 9.749 9.749 0 0 0 9.75 0 9.749 9.749 0 0 0 0 9.75a9.749 9.749 0 0 0 16.364 7.163v.478c0 .15.061.29.164.398l6.047 6.047c.22.22.577.22.797 0l.464-.464a.563.563 0 0 0 0-.797zM9.75 18C5.19 18 1.5 14.31 1.5 9.75c0-4.56 3.69-8.25 8.25-8.25C14.31 1.5 18 5.19 18 9.75 18 14.31 14.31 18 9.75 18z" fill="#333"/><mask id="a" style="mask-type:alpha" maskUnits="userSpaceOnUse" x="0" y="0" width="25" height="25"><path fill-rule="evenodd" clip-rule="evenodd" d="m23.836 22.575-6.047-6.047a.556.556 0 0 0-.398-.164h-.483A9.707 9.707 0 0 0 19.5 9.75 9.749 9.749 0 0 0 9.75 0 9.749 9.749 0 0 0 0 9.75a9.749 9.749 0 0 0 16.364 7.163v.478c0 .15.061.29.164.398l6.047 6.047c.22.22.577.22.797 0l.464-.464a.563.563 0 0 0 0-.797zM9.75 18C5.19 18 1.5 14.31 1.5 9.75c0-4.56 3.69-8.25 8.25-8.25C14.31 1.5 18 5.19 18 9.75 18 14.31 14.31 18 9.75 18z" fill="#fff"/></mask></svg>